<svg width="256" height="256" viewBox="0 0 256 256" fill="none" xmlns="http://www.w3.org/2000/svg">
  <defs>
    <radialGradient id="halo" cx="50%" cy="45%" r="60%">
      <stop offset="0%" stop-color="#FCD68C" stop-opacity="0.65"/>
      <stop offset="100%" stop-color="#0A0E17" stop-opacity="0"/>
    </radialGradient>
    <linearGradient id="spade-gradient" x1="70" y1="36" x2="176" y2="214" gradientUnits="userSpaceOnUse">
      <stop offset="0%" stop-color="#FBD375"/>
      <stop offset="35%" stop-color="#F38A8A"/>
      <stop offset="100%" stop-color="#2ED8A7"/>
    </linearGradient>
    <linearGradient id="base-gradient" x1="96" y1="194" x2="160" y2="230" gradientUnits="userSpaceOnUse">
      <stop offset="0%" stop-color="#1F2A3C"/>
      <stop offset="100%" stop-color="#101522"/>
    </linearGradient>
  </defs>
  <rect x="8" y="8" width="240" height="240" rx="52" fill="#080B13"/>
  <rect x="8" y="8" width="240" height="240" rx="52" fill="url(#halo)"/>
  <path d="M128 38C103.2 78.4 58 98.4 58 146C58 173 79 194 106 194C117.6 194 127.2 189.6 132.8 183.2C129.2 200 114 214.4 92 232H164C142 214.4 126.8 200 123.2 183.2C128.8 189.6 138.4 194 150 194C177 194 198 173 198 146C198 98.4 152.8 78.4 128 38Z" fill="url(#spade-gradient)"/>
  <path d="M120 194L104 228H152L136 194H120Z" fill="url(#base-gradient)"/>
  <circle cx="90" cy="78" r="16" fill="#FFFFFF" fill-opacity="0.18"/>
  <circle cx="172" cy="110" r="12" fill="#FFFFFF" fill-opacity="0.12"/>
</svg>
