<svg width="960" height="720" viewBox="0 0 960 720" fill="none" xmlns="http://www.w3.org/2000/svg">
  <defs>
    <radialGradient id="bgGlow" cx="0.5" cy="0.35" r="0.85">
      <stop offset="0" stop-color="#3FE19F" stop-opacity="0.6"/>
      <stop offset="0.5" stop-color="#1B7D58" stop-opacity="0.35"/>
      <stop offset="1" stop-color="#02140C" stop-opacity="0"/>
    </radialGradient>
    <linearGradient id="bgGradient" x1="160" y1="80" x2="760" y2="640" gradientUnits="userSpaceOnUse">
      <stop offset="0" stop-color="#061D11"/>
      <stop offset="0.45" stop-color="#0B2B1A"/>
      <stop offset="1" stop-color="#02140C"/>
    </linearGradient>
    <linearGradient id="potGradient" x1="480" y1="420" x2="480" y2="600" gradientUnits="userSpaceOnUse">
      <stop offset="0" stop-color="#1E2920"/>
      <stop offset="1" stop-color="#050909"/>
    </linearGradient>
    <linearGradient id="rimGradient" x1="480" y1="375" x2="480" y2="420" gradientUnits="userSpaceOnUse">
      <stop offset="0" stop-color="#27382B"/>
      <stop offset="1" stop-color="#0B1510"/>
    </linearGradient>
    <linearGradient id="coinGradient" x1="0" y1="0" x2="0" y2="1">
      <stop offset="0" stop-color="#FFEFA1"/>
      <stop offset="1" stop-color="#FFC953"/>
    </linearGradient>
    <radialGradient id="sparkle" cx="0.5" cy="0.5" r="0.5">
      <stop offset="0" stop-color="#FFF9C9" stop-opacity="1"/>
      <stop offset="1" stop-color="#FFF9C9" stop-opacity="0"/>
    </radialGradient>
    <clipPath id="clipCoins">
      <path d="M320 380C350 310 610 310 640 380C660 430 640 470 600 500C560 530 400 530 360 500C320 470 300 430 320 380Z"/>
    </clipPath>
  </defs>

  <rect width="960" height="720" rx="48" fill="url(#bgGradient)"/>
  <rect width="960" height="720" rx="48" fill="url(#bgGlow)" opacity="0.9"/>

  <g opacity="0.18">
    <circle cx="180" cy="180" r="110" fill="#3FE19F"/>
    <circle cx="760" cy="150" r="140" fill="#FFDA5C"/>
    <circle cx="820" cy="540" r="160" fill="#3FE19F"/>
    <circle cx="200" cy="560" r="130" fill="#FFDA5C"/>
  </g>

  <g opacity="0.22">
    <path d="M180 160C200 120 240 120 260 160C280 200 260 240 220 240C180 240 160 200 180 160Z" fill="#2EAD71"/>
    <path d="M760 510C780 470 820 470 840 510C860 550 840 590 800 590C760 590 740 550 760 510Z" fill="#2EAD71"/>
  </g>

  <g clip-path="url(#clipCoins)">
    <g transform="translate(360 340)">
      <ellipse cx="80" cy="80" rx="110" ry="50" fill="url(#coinGradient)" opacity="0.65"/>
    </g>
    <g transform="translate(390 330)">
      <ellipse cx="60" cy="40" rx="80" ry="36" fill="url(#coinGradient)" opacity="0.85"/>
    </g>
    <g transform="translate(420 320)">
      <ellipse cx="40" cy="25" rx="60" ry="28" fill="url(#coinGradient)"/>
    </g>
    <g transform="translate(330 360)">
      <ellipse cx="60" cy="40" rx="80" ry="34" fill="url(#coinGradient)" opacity="0.7"/>
    </g>
  </g>

  <path d="M300 420C330 360 630 360 660 420C700 500 650 580 560 620C490 650 370 650 300 620C210 580 180 500 300 420Z" fill="url(#potGradient)"/>
  <ellipse cx="480" cy="390" rx="180" ry="48" fill="url(#rimGradient)"/>

  <g opacity="0.9">
    <circle cx="430" cy="320" r="18" fill="url(#coinGradient)"/>
    <circle cx="500" cy="298" r="20" fill="url(#coinGradient)"/>
    <circle cx="560" cy="330" r="16" fill="url(#coinGradient)"/>
    <circle cx="380" cy="350" r="16" fill="url(#coinGradient)"/>
    <circle cx="520" cy="360" r="18" fill="url(#coinGradient)"/>
  </g>

  <g opacity="0.45">
    <circle cx="480" cy="260" r="120" fill="url(#sparkle)"/>
    <circle cx="340" cy="280" r="70" fill="url(#sparkle)"/>
    <circle cx="610" cy="260" r="80" fill="url(#sparkle)"/>
  </g>

  <g fill="#5CE09C" opacity="0.9">
    <path d="M230 235C245 210 280 215 290 240C305 215 340 215 355 245C370 275 350 305 315 305C300 315 275 315 260 300C235 300 220 270 230 235Z"/>
    <path d="M690 220C705 200 735 200 750 220C765 200 795 200 810 225C825 250 810 280 780 285C770 295 740 295 725 280C700 280 685 255 690 220Z"/>
    <path d="M350 520C365 500 395 500 410 520C425 500 455 500 470 525C485 550 470 575 440 580C430 590 405 590 390 575C365 575 350 555 350 520Z"/>
  </g>

  <g opacity="0.65">
    <ellipse cx="480" cy="640" rx="210" ry="35" fill="#02140C"/>
  </g>

  <g opacity="0.35" fill="#FFDA5C">
    <circle cx="230" cy="120" r="6"/>
    <circle cx="280" cy="90" r="4"/>
    <circle cx="320" cy="140" r="5"/>
    <circle cx="500" cy="120" r="6"/>
    <circle cx="560" cy="90" r="4.5"/>
    <circle cx="600" cy="150" r="5"/>
    <circle cx="700" cy="110" r="6.5"/>
    <circle cx="820" cy="200" r="4.5"/>
    <circle cx="780" cy="260" r="4"/>
  </g>
</svg>
