<?xml version="1.0" encoding="UTF-8"?>
<svg xmlns="http://www.w3.org/2000/svg" xmlns:v="https://vecta.io/nano" width="150" zoomAndPan="magnify" viewBox="0 0 112.5 30" height="40" preserveAspectRatio="xMidYMid meet">
  <defs>
    <clipPath id="A">
      <path d="M13.293 1.266H39V28H13.293zm0 0" clip-rule="nonzero"></path>
    </clipPath>
    <clipPath id="B">
      <path d="M55 9h43.938v14H55zm0 0" clip-rule="nonzero"></path>
    </clipPath>
    <clipPath id="C">
      <path d="M13.293 16H36v12H13.293zm0 0" clip-rule="nonzero"></path>
    </clipPath>
  </defs>
  <g clip-path="url(#A)">
    <path fill="#eee" d="M17.301 16.336l.332.523-.645.156h-.004l-1.516.367-1.527.359c-.16.035-.16.09-.055.199l.262.285.676.762 7.34 8.254c.059.066.102.09.195.059l1.578-.48.973-.293 1.406-.43 1.441-.441 2.332-.707 1.754-.527 2.867-.879.527-.164-.047-.051c-.023-.027-.051-.055-.078-.082l-.094-.09h-.004l-2.184-2-.715-.645-1.418-1.297-1.445-1.324-.023-.016-.758-.684a.53.53 0 0 1 .102-.211l.023-.031 1.445-2.164 4.938-7.395 1.387-2.074.918-1.371 1.184-1.773.527-.789-.199.199-2.008 2.078-1.066 1.098-2.832 2.926-2.469 2.551-4.094 4.23a1.72 1.72 0 0 0-.113.125c-.105.117-.211.238-.359.309l-.047.004c-.031 0-.062.004-.098.012l-.168.039-2.879.695-1.621.398-.723.18c-.109.016-.199-.031-.289-.086l-.223-.121-1.145-.625-2.344-1.273-.16-.094c-.152-.09-.312-.187-.516-.238l.281.43.594.906zm4.797.922l-.332-.176c.223-.09.457-.141.691-.191a5.35 5.35 0 0 0 .359-.086l1.059-.254.387-.09c.031-.008.063-.008.098-.012l.043-.004-.305.316-.895.93c-.07.074-.129.113-.242.047l-.863-.48zm5.566 1.086c.051-.074.098-.152.172-.211l.422.398.934.875 2.516 2.297.867.781.266.238.141.129-.504.156-1.062.332-1.027.309-1.051.316-1.898.578-1.773.543-1.035.313-1.871.57c-.117.035-.184.016-.262-.078l-3.027-3.398-.004-.004-1.668-1.875-.648-.734-1.121-1.254c-.125-.145-.07-.168.066-.203L17.871 18l.23-.055.137-.039.063-.016c.195.23.355.488.52.742l.188.297 1.168 1.793.734 1.137 1.285 1.961.004.004.754 1.152c.145.223.156.219.297 0l1-1.488 1.141-1.707 2.234-3.367zm0 0"></path>
  </g>
  <path fill="#eee" d="M75.188 20.504a5.46 5.46 0 0 1-.719.691c-.906.68-1.918.926-3.023.801-.844-.098-1.641-.336-2.359-.824-.887-.594-1.52-1.492-1.785-2.523-.523-1.953-.285-3.852.566-5.652.742-1.566 1.969-2.613 3.602-3.09 1.402-.43 2.914-.344 4.262.234.859.367 1.512.98 1.895 1.867.219.5.297 1.027.328 1.57.008.086-.02.129-.113.129-.594-.008-1.187-.004-1.777 0-.117 0-.125-.062-.129-.148l-.004-.012c-.051-.594-.254-1.125-.687-1.527-.422-.391-.945-.578-1.504-.641-.945-.117-1.848.02-2.652.609-.656.484-1.117 1.129-1.441 1.875-.527 1.199-.707 2.516-.52 3.813.145 1.016.605 1.855 1.539 2.324.688.344 1.414.395 2.16.273 1.211-.199 1.98-.969 2.473-2.082.121-.27.207-.551.293-.832l.02-.07c.051-.156.027-.203-.145-.203l-1.246.004-1.461.008c-.211.004-.234-.066-.191-.254l.234-1.187c.027-.145.109-.141.203-.141h3.789.781c.125-.004.188.004.148.172l-.516 2.52-.211 1.023-.152.742-.324 1.594c-.027.145-.078.199-.227.191-.309-.008-.621-.008-.93.004-.152.004-.184-.055-.18-.195l.004-.73zm0 0"></path>
  <g clip-path="url(#B)">
    <path fill="#eee" d="M98.371 21.77l-.5-.004-1.336-.004c-.164 0-.219-.043-.242-.215l-.227-1.539-.176-1.176c-.02-.152-.059-.219-.227-.219h-4.172c-.141 0-.207.055-.273.168l-.727 1.301-.871 1.555c-.051.098-.113.121-.215.121h-.047c-1.266-.004-2.527-.004-3.793.004-.156 0-.203-.07-.23-.199-.109-.465-.082-.934-.043-1.402l.063-.641.086-1.098c.012-.344.008-.687-.191-.984-.246-.367-.621-.484-1.02-.516-.703-.059-1.406-.051-2.113-.047h-1.066c-.125 0-.141.078-.152.16l-.004.039-.535 2.672-.113.539-.254 1.293c-.027.145-.086.184-.219.18-.562-.008-1.129-.004-1.691.004-.152 0-.168-.051-.141-.187l1.992-9.922.168-.852.152-.734c.016-.09.031-.152.148-.148l1.93.004 3.215.016c.641.008 1.27.121 1.859.422.742.379 1.199.977 1.355 1.813.156.82.098 1.625-.254 2.391-.332.727-.902 1.164-1.617 1.418l-.422.129-.223.059c.344.152.625.336.828.621.289.406.363.879.383 1.367.016.426-.031.84-.078 1.258l-.066.699c-.027.387-.047.777.02 1.168v.016c.02.109.039.227.121.34l.16-.262.328-.555 1.391-2.398 2.063-3.559 2.617-4.535c.172-.305.348-.445.703-.418.387.031.777.023 1.164.012l.344-.004c.117-.004.16.035.18.16l.48 2.918.254 1.496.004.008.238 1.387.656 3.926.043.25.227 1.359c.008.063.012.129.066.176zm-15.34-6.465h1.113c.441-.004.879-.043 1.301-.187.996-.34 1.535-1.234 1.355-2.305-.062-.379-.242-.687-.578-.887-.426-.254-.895-.297-1.371-.305l-1.715-.004h-.723c-.422 0-.422 0-.508.441l-.008.027-.008.035-.145.723-.461 2.293c-.031.148.012.168.137.168h1.199zm11.91-3.293l-.066.102-.082.137-.723 1.32-1.805 3.293c-.078.137-.062.176.098.176h3.113c.121 0 .164-.012.145-.164l-.23-1.641v-.012l-.344-2.484-.004-.008-.102-.719zm-28.113 2.824c-.02 1.449-.234 2.734-.828 3.93-.582 1.172-1.426 2.074-2.59 2.645a5.86 5.86 0 0 1-4.48.34c-1.332-.414-2.289-1.305-2.824-2.652-.387-.957-.449-1.953-.383-2.969.094-1.461.465-2.828 1.32-4.016 1.051-1.457 2.469-2.258 4.219-2.43 1-.098 1.969.02 2.883.465 1.367.656 2.184 1.785 2.535 3.285.117.5.148 1.008.148 1.402zm-5.113-3.488c-.437-.02-.922.09-1.387.305-.871.395-1.477 1.074-1.895 1.93-.664 1.359-.895 2.805-.625 4.301.129.715.445 1.352 1.023 1.797.949.738 2.02.813 3.117.457.926-.293 1.57-.973 2.031-1.828.75-1.398.992-2.891.742-4.469-.102-.648-.352-1.238-.82-1.703-.59-.578-1.312-.801-2.191-.789zm0 0"></path>
  </g>
  <path d="M54.574 13.867h-.238l-.586.004c-.133.004-.172-.039-.176-.18-.016-.551-.148-1.07-.492-1.504-.418-.527-.984-.754-1.621-.82-1.926-.203-3.23.914-3.926 2.508-.52 1.188-.699 2.488-.52 3.77.133.996.57 1.824 1.461 2.313.941.516 2.449.57 3.371-.254.547-.496.895-1.125 1.109-1.836.059-.191.133-.266.34-.258h1.547c.16-.004.207.035.16.203-.266 1.051-.695 2.012-1.461 2.789-1.062 1.086-2.371 1.48-3.836 1.418-1.023-.047-1.984-.301-2.828-.922-1.031-.754-1.613-1.805-1.836-3.066-.191-1.055-.121-2.109.082-3.156.234-1.187.703-2.262 1.488-3.18.664-.781 1.523-1.375 2.492-1.711 1.078-.383 2.184-.422 3.297-.199.934.188 1.754.605 2.375 1.379.598.746.813 1.625.82 2.574.004.125-.059.133-.152.133l-.629-.004zm-14 3.801h-.793a151 151 0 0 1-2.305-.004c-.184 0-.238.063-.246.234-.047.758-.004 1.496.406 2.156a2.03 2.03 0 0 0 1.414.969c.875.168 1.684.008 2.387-.574.434-.355.734-.82.926-1.355.047-.137.109-.187.25-.18l.629.004h.055c.117-.004.176.008.129.164-.469 1.488-1.363 2.523-2.891 2.828-.941.188-1.879.141-2.754-.34a2.73 2.73 0 0 1-1.398-1.785c-.516-2.086-.121-3.992 1.254-5.625.84-1 1.949-1.441 3.23-1.41.715.02 1.379.199 1.945.656.66.535.992 1.258 1.102 2.098.074.566.043 1.133.008 1.703l-.016.273c-.008.156-.066.195-.215.191l-2.352-.004zm-.441-.914h.676l1.859.008c.195 0 .254-.066.242-.254-.008-.098-.004-.195 0-.297v-.301c-.043-.656-.242-1.246-.734-1.699-.801-.738-2.234-.723-3.172-.043-.809.586-1.277 1.402-1.559 2.359-.055.184-.016.234.168.23l1.852-.004zm0 0" fill="#eee"></path>
  <g clip-path="url(#C)">
    <path fill="#eee" d="M27.848 18.156l-10.215-1.297-.645.156h-.004l-1.516.367-1.527.359c-.16.035-.16.09-.055.199l.262.285.676.762 7.34 8.254c.059.066.102.09.195.059l1.578-.48.973-.293 1.406-.43 1.441-.441 2.332-.707 1.754-.527 2.867-.879.527-.164-.047-.051c-.023-.027-.051-.055-.078-.082l-.094-.09h-.004l-2.184-2-.715-.645-1.418-1.297-1.445-1.324-.023-.016-.758-.672zm-11.754.266l1.672-.406.527-.125c.023-.008-.684-1.043-.66-1.031.004 0 10.215 1.297 10.215 1.297.063.02 1.32 1.23 1.344 1.25l2.516 2.297.867.781.266.238.141.129-.504.156-1.062.332-1.027.309-1.051.316-1.898.578-1.773.543-1.035.313-1.871.57c-.117.035-.184.016-.262-.078l-3.027-3.398-.004-.004-1.668-1.875-.648-.734-1.121-1.254c-.125-.145-.07-.168.066-.203zm0 0"></path>
  </g>
  <path fill="#eee" d="M25.836 14.895l-5.574 1.34 1.504.875 2.637-.664zm0 0"></path>
</svg>
