<?xml version="1.0" encoding="UTF-8"?>
<svg xmlns="http://www.w3.org/2000/svg" xmlns:v="https://vecta.io/nano" width="150" zoomAndPan="magnify" viewBox="0 0 112.5 30" height="40" preserveAspectRatio="xMidYMid meet">
  <defs>
    <clipPath id="A">
      <path d="M3.531 8.348h105.242v12.336H3.531zm0 0" clip-rule="nonzero"></path>
    </clipPath>
  </defs>
  <g clip-path="url(#A)">
    <path fill="#eee" d="M-13.785 13.648h.25 1.965c.398 0 .723-.074 1.023-.324.723-.547.723-1.57 0-2.043-.25-.148-.473-.324-.723-.324-.871-.074-1.668 0-2.516-.074zm0 4.805h.25 2.039.477c.945-.148 1.566-1.02 1.27-1.965-.152-.625-.723-.949-1.27-1.098-.398-.074-.875-.074-1.273-.074h-1.492zm-3.164-9.391h2.691l3.559.078c.949 0 1.746.32 2.293 1.094.625.871.797 1.82.473 2.84-.148.473-.473.797-.871 1.02-.148.078-.25.152-.398.25.324.152.625.324.871.551.625.547.949 1.344.949 2.215 0 .945-.324 1.746-1.098 2.367-.547.473-1.195.723-1.895.797-.246 0-.473.074-.723.074h-5.68-.246v-1.816h.871v-7.574h-.871zm143.605 7.824v-.723c-.074-.547-.398-.949-.871-1.195-.871-.551-1.895-.25-2.293.723-.25.723-.25 1.344-.074 2.043.148.547.398.945.945 1.195 1.023.398 2.293-.477 2.293-1.57zm-2.043 5.281c-.324-.074-.723-.152-.945-.324-.625-.324-1.023-.797-1.273-1.496h.949c.074 0 .074.074.148.074.547.949 1.668 1.195 2.617.625.398-.25.547-.551.621-1.023v-1.418c-.074.074-.148.25-.25.324-.945 1.094-2.687.871-3.488-.25-.547-.723-.621-1.496-.547-2.367 0-.547.25-1.02.473-1.496.797-1.195 2.691-1.418 3.563-.148.074.074.152.148.25.324v-1.02h1.742v.719h-.871v.25 4.984c0 1.195-.723 1.891-1.816 2.141-.152 0-.25.074-.398.074h-.797v.027zm7.348-16.59c0-1.273-1.02-2.293-2.289-2.293s-2.293 1.02-2.367 2.293c0 1.27 1.02 2.289 2.289 2.363 1.348-.074 2.367-1.094 2.367-2.363zm.473.324c-.074.473-.246.871-.547 1.27-.723.945-1.895 1.344-3.016 1.02-1.094-.324-1.891-1.27-1.965-2.367-.152-1.492.871-2.84 2.289-3.086h.152.695c.797.148 1.348.473 1.82 1.094.324.398.398.797.547 1.27v.801zm-55.051 8.516l-.547 2.367-.797 3.313c0 .074 0 .152-.148.152h-2.145c-.074-.25-.148-.477-.148-.723l-1.57-5.93c0-.148-.074-.25-.246-.25h-.551V11.68h3.387v1.668h-.871l1.195 4.984c.078-.152.078-.402.152-.551l1.27-5.852c0-.074.074-.152.148-.152h1.895c.148 0 .148.078.148.152l1.344 6.152c0 .074 0 .074.078.148l1.094-4.906h-.871v-1.668h3.387v1.668h-.547c-.074 0-.148 0-.148.148l-1.746 6.477c-.074.148-.074.25-.25.25h-1.891c-.148 0-.148 0-.25-.148L77.41 14.52c.047-.023.047-.023-.027-.102zM66 11.258l-1.496 4.906h2.918L66 11.258zm5.281 7.195v1.82h-2.516l-.473-1.668-.25-.723c0-.074-.074-.074-.148-.074h-3.711c-.152 0-.152.074-.152.148l-.621 2.141c0 .074 0 .074-.074.152h-2.617v-1.82h.723c.148 0 .148 0 .25-.148l2.914-9.168c0-.148.074-.148.25-.148h2.441c.148 0 .148.074.246.148l3.016 9.094c.074.148.074.148.25.148 0 .098.25.098.473.098zm30.988-3.559l3.637.074c0-.949-.723-1.672-1.668-1.672-.949-.047-1.895.723-1.969 1.598zm6.078 1.594h-6.078c.074.797.324 1.492.945 1.965.547.402 1.195.477 1.895.25.473-.148.723-.473.945-.945.074-.074.074-.148.25-.148l1.969-.078c0 .152-.074.25-.074.324-.477 1.496-1.496 2.367-3.09 2.617-.949.148-1.82.074-2.691-.398-1.094-.547-1.816-1.496-2.141-2.766-.324-1.496-.152-2.914.797-4.184 1.566-2.145 4.906-2.043 6.477.074.473.82.871 2.34.797 3.289zM-3.746 14.895l3.637.074c.074-.875-.625-1.57-1.57-1.672-.973-.121-1.992.648-2.066 1.598zm5.926 1.594h-6.078c0 .148 0 .324.078.473.074.324.148.621.32.945.398.723 1.098.949 1.895.871a1.59 1.59 0 0 0 1.422-1.094c0-.074.074-.074.148-.074l1.969-.078h.074c-.074.477-.25.875-.473 1.273-.625.945-1.496 1.492-2.617 1.668-.945.148-1.895.074-2.766-.398-1.195-.621-1.816-1.668-2.141-2.914-.25-1.27-.152-2.516.547-3.637 1.418-2.441 5.055-2.691 6.727-.324.621.945.945 2.043.945 3.238.023-.023.023-.023-.051.051zm87.508-.25c-.547.074-1.094.074-1.566.25-.398.074-.723.148-1.098.324-.473.148-.621.547-.621 1.02s.324.797.797.945c.723.25 1.57 0 2.141-.547.449-.574.449-1.27.348-1.992zm0-1.422c0-.246-.074-.547-.074-.797a1 1 0 0 0-.871-.871c-.324-.074-.723-.074-1.02 0-.551.148-.949.473-.949 1.098v.25l-2.039-.078c0-.398.074-.797.32-1.094a2.92 2.92 0 0 1 1.496-1.348c1.27-.473 2.516-.473 3.785.078 1.023.398 1.496 1.27 1.57 2.289.074.949 0 1.895 0 2.914v1.496h.723v1.668h-2.691v-.945l-.324.324c-1.27 1.094-3.387 1.02-4.582-.074-1.02-1.023-1.02-3.09.547-3.863.723-.398 1.422-.547 2.219-.621l1.969-.25c-.152-.176-.152-.176-.078-.176zM26.195 13.25l.871-.949c.723-.621 1.492-.871 2.441-.723.723.152 1.094.551 1.344 1.199.074.148.074.32.148.473.078-.074.152-.25.25-.324.398-.625.949-1.195 1.746-1.348.723-.148 1.418-.148 1.965.324.477.398.625.949.723 1.496v.547 4.91.246h1.195v1.023h-2.363v-.25-5.855c0-.246 0-.398-.078-.621-.148-.797-.719-1.195-1.566-.945-.625.148-1.023.547-1.422 1.094-.324.473-.473 1.023-.473 1.57v3.785.25h1.27v1.02h-2.59v-.246-5.93c0-.25 0-.473-.074-.723-.148-.473-.473-.723-.945-.797-.723-.074-1.195.25-1.672.723-.547.621-.871 1.27-.797 2.141v3.637.25h1.273v1.023h-3.613v-1.023h1.195v-6.551h-1.195v-1.02h2.516c-.223.547-.223 1.043-.148 1.594zm-14.473 2.441H9.105c0-.324 0-.723.074-1.023h3.961v5.531h-1.246v-1.746c-.074.078-.074.078-.074.152-.797 1.195-1.816 1.816-3.238 1.891-1.094 0-1.969-.398-2.84-1.094-.945-.871-1.492-1.969-1.742-3.164-.324-1.57-.148-3.164.473-4.66.473-1.02 1.195-1.891 2.219-2.363 1.668-.797 3.711-.477 4.906 1.27 0 .074.074.074.148.148V8.891h1.195v3.563h-1.293c-.078-.477-.324-.875-.551-1.273-.621-.871-1.492-1.344-2.516-1.344-.945 0-1.742.473-2.289 1.195-.551.625-.801 1.422-.949 2.293-.148 1.195-.074 2.293.324 3.387.25.621.547 1.195 1.098 1.668.945.875 2.141 1.023 3.238.477 1.094-.477 1.816-1.82 1.719-3.164zm33.504.246v-.547c-.074-.621-.25-1.27-.551-1.816-.621-.875-1.668-1.195-2.613-.723-.871.398-1.746 1.492-1.57 2.688.074.625 0 1.195.148 1.82.152 1.02 1.195 1.895 2.219 2.043a2.05 2.05 0 0 0 2.043-1.195c.172-.773.324-1.496.324-2.27zm-6.078-6.324h-1.098V8.59h2.367v4.906c.074-.074.074-.148.148-.148a4.24 4.24 0 0 1 1.023-1.094c1.094-.797 2.441-.797 3.563.148.797.621 1.195 1.496 1.418 2.441.324 1.418.148 2.766-.621 4.035-.398.621-.949 1.195-1.672 1.496-1.094.398-2.363.074-3.164-.801-.148-.246-.395-.473-.621-.719v1.492h-2.441v-1.02h1.195V9.613zm-18.957 6.324h-.148c-.723.078-1.422.25-2.219.398-.473.078-.945.25-1.344.551-.25.148-.473.398-.473.797-.152.945.547 1.891 1.566 1.969 1.098.074 2.293-.797 2.516-1.895.102-.723 0-1.27.102-1.82zm1.094 3.391h1.199c0 .324.074.723.074 1.02h-2.441v-1.492l-.074.074c-.625 1.02-1.57 1.492-2.766 1.566-1.023.074-1.82-.324-2.367-1.195-.473-.797-.621-1.566-.148-2.441.25-.547.723-.797 1.27-1.02.723-.324 1.496-.473 2.293-.625l1.816-.246c0-.398 0-.875-.074-1.273-.148-.621-.621-.945-1.195-1.094-.473-.148-1.023-.074-1.496 0-.621.148-1.02.621-1.195 1.195-.074.148-.074.25-.324.25h-1.094c.25-1.023.723-1.746 1.668-2.219 1.098-.473 2.219-.473 3.313 0 .871.398 1.344 1.098 1.496 2.043v.625 4.434zm31.984-4.035h4.66c0-.723-.25-1.273-.547-1.82-.477-.621-1.023-.945-1.82-.797-1.492.176-2.191 1.27-2.293 2.617zm6.105.945h-6.152l.148.797a3.74 3.74 0 0 0 .547 1.418c.625.949 2.043 1.273 2.914.723.398-.246.625-.621.875-1.02.074-.148.148-.25.32-.25h1.195c-.074.148-.074.324-.148.473-.547 1.273-2.043 2.145-3.488 1.969-1.965-.148-3.312-1.492-3.637-3.488-.246-1.27-.074-2.516.625-3.637.547-.945 1.418-1.566 2.516-1.742 1.57-.25 3.016.547 3.711 1.969.398.797.547 1.668.547 2.613l.027.176zm37.191 2.367h1.02v1.668h-3.961v-1.668h.871v-5.207h-.871V11.73h2.914V13a.64.64 0 0 0 .148-.324c.324-.473.723-.945 1.348-1.02.473-.152 1.02-.078 1.492 0l.078.074v1.891c-.25 0-.477-.074-.723-.074-.625-.074-1.273.074-1.746.473-.398.324-.547.797-.621 1.273v3.16c-.027.078-.027.078.051.152zM48.465 9.539H47.27V8.59h2.441v10.664h1.094v1.02H47.27v-1.02h1.195zm63.918 7.645c0 .473.074.949.25 1.422.324.621.797 1.02 1.492 1.02s1.273-.324 1.57-.945c.148-.398.25-.723.324-1.195.074-.625 0-1.27-.324-1.82-.324-.621-.871-.945-1.57-.945s-1.094.398-1.418.945c-.324.5-.324.973-.324 1.52zm4.559-.148c0 .797-.148 1.496-.547 2.043-.625.945-1.496 1.27-2.617 1.195-1.02-.074-1.742-.723-2.141-1.668-.398-1.023-.477-2.145 0-3.164s1.344-1.57 2.516-1.57 1.965.547 2.441 1.57a3.64 3.64 0 0 1 .348 1.594zm3.488 3.164h-2.766v-.723h.871v-4.66h-.871v-.723h1.816v1.273c.324-.551.723-1.098 1.348-1.348a3.24 3.24 0 0 1 1.195 0v.875c-.152 0-.324 0-.473-.078-1.098-.074-2.043.723-2.043 1.82v2.691.074h1.02zm-11.062-1.023h1.023v1.023h-1.023zm19.582-14.871v.949h.945c.074 0 .148 0 .25-.074.246-.078.324-.25.246-.551 0-.246-.148-.398-.398-.398-.32.074-.645.074-1.043.074zm1.344 1.195c.324.078.398.324.398.551s.074.547.074.797c-.473 0-.398.074-.473-.398 0-.148 0-.324-.074-.473-.074-.25-.148-.398-.473-.398h-.949v1.195h-.398v-2.84h.324 1.195c.398 0 .625.246.723.547.227.473.051.773-.348 1.02zm0 0"></path>
  </g>
</svg>
