<?xml version="1.0" encoding="UTF-8"?>
<svg xmlns="http://www.w3.org/2000/svg" xmlns:v="https://vecta.io/nano" width="150" zoomAndPan="magnify" viewBox="0 0 112.5 30" height="40" preserveAspectRatio="xMidYMid meet">
  <defs>
    <clipPath id="A">
      <path d="M24 6h85.383v17H24zm0 0" clip-rule="nonzero"></path>
    </clipPath>
    <clipPath id="B">
      <path d="M2.688 4.047H20v21.047H2.688zm0 0" clip-rule="nonzero"></path>
    </clipPath>
  </defs>
  <g clip-path="url(#A)">
    <path fill="#eee" d="M35.668 10.547c.082.297-.02.473-.254.555l-2.262.672c-.273.078-.414 0-.512-.277-.352-1.168-1.102-1.777-2.496-1.777-2.125 0-2.852 1.262-2.852 2.961v3.914c0 1.699.707 2.961 2.852 2.961 1.75 0 2.676-.809 2.676-2.605v-.516H30.52c-.199 0-.316-.098-.316-.336v-2.172c-.02-.16.098-.316.277-.336h.039 5.109c.219 0 .336.098.336.316v3.238c0 3.086-2.262 5.414-5.781 5.414-4.168 0-6.113-2.488-6.113-5.887v-4.129c0-3.398 1.945-5.887 6.113-5.887 3.363.02 4.875 1.953 5.484 3.891zm11.465 3.852v7.59c.02.156-.117.293-.277.316h-.039-2.297c-.16.02-.316-.102-.336-.277v-.039-1.246c-.668 1.125-1.867 1.816-3.187 1.797-2.18 0-3.578-1.402-3.578-3.574 0-2.113 1.32-3.359 4.543-3.598.688-.059 1.398-.059 2.105-.02V14.5c0-1.129-.59-1.582-1.594-1.582-1.023 0-1.316.414-1.594 1.066-.098.258-.195.297-.41.238l-2.301-.594a.25.25 0 0 1-.219-.355c.316-1.66 1.891-2.883 4.641-2.883 2.91.02 4.543 1.422 4.543 4.008zm-3.066 3.992v-1.105a14.6 14.6 0 0 0-1.848.059c-1.18.137-1.793.512-1.793 1.402 0 .809.555 1.266 1.438 1.266 1.023 0 1.828-.555 2.203-1.621zm11.363-7.98c1.453 0 2.418.867 2.871 2.113.863-1.266 1.906-2.113 3.363-2.113 2.023 0 3.184 1.617 3.184 4.031v7.547c0 .195-.176.316-.375.316h-2.398c-.215 0-.371-.121-.371-.316v-6.996c0-1.047-.453-1.68-1.281-1.68-.863 0-1.492.711-1.789 1.797v6.879c.02.156-.117.293-.273.316h-2.613c-.199 0-.277-.121-.277-.316v-6.996c0-1.047-.473-1.68-1.277-1.68-.887 0-1.516.75-1.789 1.84v6.855c.02.156-.098.297-.258.316h-.059-2.535c-.156.02-.293-.102-.316-.258v-.059V10.98c0-.156.141-.293.297-.293h2.457c.156-.023.297.098.316.273v1.344c.668-.988 1.672-1.895 3.125-1.895zm22.57.254c.059.277-.02.477-.273.555l-2.223.652c-.273.078-.414-.02-.512-.277-.312-1.047-.863-1.895-2.398-1.895-1.906 0-2.516 1.262-2.516 2.961v3.914c0 1.699.688 2.961 2.516 2.961 1.633 0 2.262-.926 2.516-2.074.063-.254.238-.375.512-.273l2.223.711c.258.078.336.273.277.551-.531 2.273-2.164 4.129-5.547 4.129-3.812 0-5.723-2.488-5.723-5.887v-4.129c0-3.398 1.969-5.887 5.723-5.887 3.305 0 4.855 1.758 5.426 3.988zm11.148 3.734v7.59c.02.156-.117.293-.273.316h-.039-2.301c-.156.02-.316-.102-.336-.277v-.039-1.246c-.668 1.125-1.867 1.816-3.184 1.797-2.184 0-3.578-1.402-3.578-3.574 0-2.113 1.316-3.359 4.539-3.598a15.13 15.13 0 0 1 2.105-.02V14.5c0-1.129-.59-1.582-1.594-1.582-1.02 0-1.316.414-1.59 1.066-.098.258-.199.297-.414.238l-2.301-.594a.25.25 0 0 1-.215-.355c.313-1.66 1.887-2.883 4.641-2.883 2.91.02 4.539 1.422 4.539 4.008zm-3.086 3.992v-1.105a14.6 14.6 0 0 0-1.848.059c-1.18.137-1.789.512-1.789 1.402 0 .809.551 1.266 1.434 1.266 1.043 0 1.828-.555 2.203-1.621zm12.035-7.508v2.254c0 .273-.102.375-.375.375h-.336c-1.668 0-2.652.75-2.988 2.016v6.48c.02.156-.098.297-.254.316h-2.656c-.156 0-.273-.141-.273-.297V10.961c0-.156.117-.297.254-.297h.039 2.379c.258 0 .316.16.316.336v1.563c.551-1.027 1.574-2.035 3.363-2.035.449 0 .531.059.531.355zm4.109 6.578v.438c0 1.223.629 2.074 2.102 2.074 1.438 0 1.848-.555 2.223-1.246.195-.316.273-.355.609-.219l1.652.852c.332.176.352.336.215.652-.707 1.617-2.496 2.547-4.699 2.547-3.34 0-5.113-1.996-5.113-4.723v-2.684c0-2.648 1.652-4.723 5.074-4.723 3.262 0 4.855 2.074 4.855 4.66v1.859c0 .316-.098.531-.551.531zm0-2.469v.395h4.027v-.395c0-1.125-.629-2.016-2.004-2.016s-2.023.891-2.023 2.016zm0 0"></path>
  </g>
  <g clip-path="url(#B)">
    <path fill="#eee" d="M11.848 4.047H3.207a.27.27 0 0 0-.266.266v12.621c0 4.5 3.633 8.16 8.121 8.16h.785c4.48 0 8.109-3.648 8.109-8.16v-4.727c.012-4.512-3.617-8.16-8.109-8.16zm5.52 13.023c0 3.063-2.25 5.387-5.734 5.387-4.141 0-6.074-2.469-6.074-5.852v-4.098c0-3.379 1.934-5.848 6.074-5.848 3.352 0 4.863 1.922 5.469 3.844.082.289-.023.461-.254.547l-2.254.668c-.266.086-.41 0-.492-.27-.352-1.152-1.102-1.773-2.469-1.773-2.121 0-2.832 1.254-2.832 2.941v3.891c0 1.691.699 2.945 2.832 2.945 1.742 0 2.66-.816 2.66-2.59v-.5h-2.324c-.18 0-.312-.109-.312-.328v-2.152c0-.207.121-.34.313-.34h5.07c.207 0 .328.109.328.316zm0 0"></path>
  </g>
</svg>
