<?xml version="1.0" encoding="UTF-8"?>
<svg xmlns="http://www.w3.org/2000/svg" xmlns:xlink="http://www.w3.org/1999/xlink" xmlns:v="https://vecta.io/nano" width="150" zoomAndPan="magnify" viewBox="0 0 112.5 30" height="40" preserveAspectRatio="xMidYMid meet">
  <defs>
    <clipPath id="A">
      <path d="M98 24h2.535v3H98zm0 0" clip-rule="nonzero"></path>
    </clipPath>
    <clipPath id="B">
      <path d="M44 21h56.535v1H44zm0 0" clip-rule="nonzero"></path>
    </clipPath>
    <clipPath id="C">
      <path d="M11.48 5H31v22H11.48zm0 0" clip-rule="nonzero"></path>
    </clipPath>
    <clipPath id="D">
      <path d="M21 6h18v21.785H21zm0 0" clip-rule="nonzero"></path>
    </clipPath>
    <path id="E" d="M53.051 24.258v.195c.137-.152.293-.227.469-.227a.51.51 0 0 1 .273.074.49.49 0 0 1 .191.207c.043.09.066.227.066.418v.895h-.309v-.891c0-.16-.027-.273-.074-.344s-.133-.102-.246-.102c-.145 0-.27.074-.371.219v1.117h-.316v-1.562zm0 0"></path>
    <path id="F" d="M67.117 25.82h.313v-1.566h-.312zm.156-2.223c.051 0 .094.016.129.051s.055.078.055.129-.02.094-.055.133-.078.055-.129.055-.09-.02-.129-.059-.055-.078-.055-.129.02-.09.055-.125.078-.055.129-.055zm0 0"></path>
  </defs>
  <g fill="#eee">
    <path d="M58.234 15.527l.059 3.523c-.039.121-.16.219-.383.219-.238-.34-.824-1.047-2.574-3.039l-4.672-5.312-2.332-2.719h-.043c-.078.242-.102.703-.102 1.309v4.391c0 .945.023 3.562.363 4.164.121.223.523.344 1.027.383l.625.063c.121.16.102.402-.039.5l-2.355-.059-2.094.059c-.141-.098-.164-.379-.043-.5l.543-.062c.465-.059.785-.18.887-.402.281-.727.262-3.18.262-4.145V8.08c0-.562-.02-.984-.441-1.449-.281-.281-.766-.422-1.25-.484l-.34-.039c-.121-.121-.121-.422.039-.504l2.273.063a6.09 6.09 0 0 0 .926-.062c.402 1.027 2.781 3.684 3.445 4.43l1.949 2.195 3.324 3.641h.039c.082-.098.082-.422.082-.844v-4.309c0-.945-.02-3.562-.402-4.164-.121-.184-.445-.305-1.25-.406l-.344-.039c-.141-.121-.117-.441.043-.504l2.375.063 2.074-.062c.16.102.16.383.039.504l-.281.039c-.645.102-1.047.262-1.129.426-.34.723-.301 3.219-.301 4.145zm5.778-8.476c1.469-1.145 3.344-1.711 5.438-1.711a15.56 15.56 0 0 1 3.563.484c.238.059.379.102.563.082.02.461.121 1.73.281 2.957-.102.141-.402.16-.543.039-.301-1.367-1.207-2.937-4.125-2.937-3.082 0-5.699 1.953-5.699 6.121 0 4.227 2.676 6.562 5.98 6.562 2.594 0 3.742-1.691 4.207-2.879.141-.102.441-.062.523.078-.141 1.047-.664 2.375-.969 2.758-.242.043-.48.121-.703.203-.441.16-1.891.461-3.18.461-1.812 0-3.543-.359-5.012-1.348-1.613-1.105-2.859-2.937-2.859-5.535 0-2.234 1.004-4.148 2.535-5.336zm14.816 8.879c0 2.113.039 2.375 1.328 2.516l.543.063c.121.098.082.441-.039.5l-2.617-.059-2.457.059c-.117-.059-.16-.379-.039-.5l.422-.062c1.168-.16 1.211-.402 1.211-2.516V8.5c0-1.711-.043-2.051-.949-2.152l-.723-.082c-.141-.121-.121-.422.039-.5 1.066-.141 2.316-.164 3.984-.164s2.922.223 3.867.805c.926.586 1.609 1.633 1.609 3.02 0 1.855-1.148 2.781-2.012 3.203a6.81 6.81 0 0 1-2.777.602c-.141-.059-.141-.359-.02-.402 2.172-.402 2.957-1.629 2.957-3.379 0-1.953-1.148-3.223-3.242-3.223-1.066 0-1.086.082-1.086.727zm19.867.965c0 .805.121 1.289.484 1.43.063.063.063.184-.02.242-.242 0-.605.082-.988.18-1.066.285-2.516.523-3.602.523-2.395 0-4.59-.664-6.141-2.234-1.207-1.207-1.852-2.797-1.852-4.566 0-1.715.563-3.445 1.813-4.773 1.348-1.406 3.34-2.355 6.379-2.355 1.148 0 2.215.223 2.559.305.383.078 1.008.219 1.246.18 0 .664.121 1.711.305 2.918-.062.16-.426.184-.543.063-.566-2.176-2.074-2.859-4.129-2.859-3.906 0-5.617 2.777-5.617 5.797 0 3.863 1.996 6.906 6.039 6.906 1.25 0 1.996-.262 2.215-.605.102-.141.203-.504.203-1.148v-.805c0-1.691-.062-1.812-1.309-1.953l-.887-.098c-.16-.082-.141-.445 0-.504l2.879.059 2.133-.059c.141.078.16.383.02.504l-.32.039c-.844.102-.867.664-.867 1.691zm-52.082 6.55h.324v2.375h-.293l-1.594-1.832v1.832h-.316v-2.375h.273l1.605 1.844zm1.469 2.067v-.465l-.207.082c-.105.039-.18.082-.227.125s-.062.098-.062.16.02.117.063.156.094.063.16.063c.098 0 .188-.039.273-.121zm.305-.633v.668c0 .055.02.078.055.078s.094-.027.176-.082v.188a.88.88 0 0 1-.172.094.38.38 0 0 1-.133.023c-.133 0-.211-.051-.234-.156-.133.102-.273.156-.422.156a.37.37 0 0 1-.27-.109c-.071-.07-.109-.164-.109-.273a.38.38 0 0 1 .105-.262c.07-.078.172-.141.301-.187l.398-.137v-.082c0-.187-.094-.281-.281-.281-.172 0-.336.086-.496.262v-.34c.121-.141.293-.211.52-.211.168 0 .305.043.406.133a.4.4 0 0 1 .094.113.41.41 0 0 1 .051.141c.008.047.012.137.012.266zm0 0"></path>
    <path d="M48.672 24.504l.582-.57v.32h.496v.281h-.496v.766c0 .18.074.27.223.27a.69.69 0 0 0 .352-.109v.289c-.121.066-.25.098-.391.098s-.258-.039-.352-.121c-.031-.027-.055-.055-.074-.086s-.035-.07-.051-.121-.02-.148-.02-.289v-.695h-.27zm0 0"></path>
    <path d="M50.059 25.82h.309v-1.566h-.309zm.152-2.223a.19.19 0 0 1 .133.051c.039.035.055.078.055.129s-.02.094-.055.133-.082.055-.133.055-.09-.02-.125-.059-.055-.078-.055-.129.02-.09.055-.125a.16.16 0 0 1 .125-.055zm1.336.934c-.148 0-.27.051-.363.148s-.145.219-.145.371.047.273.145.367.223.141.379.141.277-.047.371-.141.148-.223.148-.371-.051-.27-.152-.367-.23-.148-.383-.148zm.02-.277a.81.81 0 0 1 .594.23c.156.152.234.348.234.578a.73.73 0 0 1-.238.563.86.86 0 0 1-.605.223.82.82 0 0 1-.59-.227c-.156-.152-.234-.34-.234-.566s.078-.422.238-.574.359-.227.602-.227zm0 0"></path>
    <use xlink:href="#E"></use>
    <path d="M55.164 25.512v-.465l-.211.082a.63.63 0 0 0-.223.125c-.043.043-.066.098-.066.16s.023.117.063.156.098.063.16.063a.39.39 0 0 0 .277-.121zm.305-.633v.668c0 .055.016.078.055.078s.094-.027.172-.082v.188c-.07.047-.125.078-.168.094a.38.38 0 0 1-.133.023c-.133 0-.211-.051-.234-.156-.133.102-.273.156-.422.156-.109 0-.199-.039-.273-.109s-.109-.164-.109-.273c0-.098.039-.184.109-.262s.172-.141.301-.187l.398-.137v-.082c0-.187-.098-.281-.285-.281-.168 0-.332.086-.492.262v-.34c.121-.141.293-.211.52-.211.168 0 .305.043.406.133a.33.33 0 0 1 .09.113.42.42 0 0 1 .055.141c.008.047.012.137.012.266zm0 0"></path>
    <path d="M55.977 25.82h.313v-2.375h-.312zm3.82-.55v.375c-.25.137-.539.203-.863.203-.266 0-.492-.051-.676-.16a1.16 1.16 0 0 1-.441-.437 1.23 1.23 0 0 1-.16-.609c0-.348.121-.637.371-.875a1.27 1.27 0 0 1 .91-.352c.254 0 .531.063.836.195v.367c-.281-.16-.551-.238-.816-.238-.273 0-.5.086-.68.258s-.27.387-.27.645a.86.86 0 0 0 .266.645c.176.168.402.25.68.25.289 0 .57-.086.844-.266zm1.109-.739a.49.49 0 0 0-.367.148c-.094.098-.145.219-.145.371a.49.49 0 0 0 .148.367.52.52 0 0 0 .375.141.52.52 0 0 0 .375-.141c.098-.098.145-.223.145-.371s-.051-.27-.152-.367-.227-.148-.379-.148zm.016-.277c.238 0 .438.074.594.23s.238.348.238.578a.73.73 0 0 1-.242.563c-.16.149-.359.223-.602.223s-.434-.074-.59-.227a.76.76 0 0 1-.238-.566.76.76 0 0 1 .242-.574.82.82 0 0 1 .598-.227zm2.172 1.566v-.199a.76.76 0 0 1-.223.168c-.086.039-.172.059-.254.059a.5.5 0 0 1-.273-.074.45.45 0 0 1-.191-.199c-.039-.086-.062-.227-.062-.422v-.898h.309v.895c0 .164.023.277.07.344s.133.098.25.098c.148 0 .273-.07.375-.215v-1.121h.313v1.566zm1.058-1.562v.195c.137-.152.293-.227.469-.227.098 0 .188.023.273.074s.148.121.191.207.066.227.066.418v.895h-.312v-.891c0-.16-.023-.273-.07-.344s-.133-.102-.246-.102c-.148 0-.27.074-.371.219v1.117h-.32v-1.562zm2.606 1.199v.305a1.26 1.26 0 0 1-.457.086c-.242 0-.437-.07-.586-.215s-.219-.34-.219-.586.074-.445.215-.594.328-.227.559-.227a.94.94 0 0 1 .219.023c.063.012.141.043.238.086v.328c-.156-.098-.305-.148-.437-.148-.141 0-.254.047-.344.145s-.133.227-.133.379c0 .16.047.285.145.379s.227.141.391.141c.121 0 .258-.031.41-.102zm0 0"></path>
    <use xlink:href="#F"></use>
    <path d="M67.883 25.82h.309v-2.375h-.309zm2.457-1.289c-.148 0-.27.051-.363.148s-.145.219-.145.371.047.273.148.367c.094.094.223.141.375.141a.52.52 0 0 0 .52-.512c0-.148-.051-.27-.152-.367a.53.53 0 0 0-.383-.148zm.02-.277a.81.81 0 0 1 .594.23c.156.152.234.348.234.578a.73.73 0 0 1-.238.563.86.86 0 0 1-.605.223.82.82 0 0 1-.59-.227c-.156-.152-.234-.34-.234-.566s.078-.422.238-.574.359-.227.602-.227zm1.484.004v.195c.137-.152.297-.227.473-.227a.5.5 0 0 1 .27.074.49.49 0 0 1 .191.207c.047.09.066.227.066.418v.895h-.309v-.891c0-.16-.023-.273-.074-.344s-.129-.102-.246-.102c-.145 0-.27.074-.371.219v1.117h-.316v-1.562zm3.121-.516h-.352v.746h.371c.141 0 .246-.035.32-.098s.113-.16.113-.281c0-.246-.152-.367-.453-.367zm-.695 2.078v-2.379h.754c.227 0 .41.059.543.184a.64.64 0 0 1 .203.492c0 .141-.035.262-.105.367a.59.59 0 0 1-.281.234c-.121.047-.293.07-.52.07h-.25v1.031zm0 0"></path>
    <path d="M76.355 24.258v.355l.016-.027c.152-.238.301-.359.449-.359.117 0 .242.059.367.176l-.164.273c-.105-.102-.207-.156-.301-.156s-.184.051-.258.145a.53.53 0 0 0-.109.34v.816h-.312v-1.562zm1.696.273a.49.49 0 0 0-.367.148c-.094.098-.145.219-.145.371a.49.49 0 0 0 .148.367.52.52 0 0 0 .375.141.52.52 0 0 0 .375-.141c.098-.098.145-.223.145-.371s-.051-.27-.152-.367-.227-.148-.379-.148zm.016-.277c.238 0 .438.074.594.23s.238.348.238.578a.73.73 0 0 1-.242.563c-.16.149-.359.223-.602.223s-.434-.074-.59-.227a.76.76 0 0 1-.238-.566.77.77 0 0 1 .238-.574c.16-.152.359-.227.602-.227zm1.472.41v.848a1.12 1.12 0 0 0 .324.047c.137 0 .25-.047.336-.145a.55.55 0 0 0 .129-.379c0-.152-.039-.281-.121-.379a.39.39 0 0 0-.316-.145c-.117 0-.234.051-.352.152zm-.312-1.219h.313v.922a.71.71 0 0 1 .426-.145.61.61 0 0 1 .488.223c.125.152.188.344.188.578 0 .254-.074.453-.223.602s-.352.223-.605.223a1.56 1.56 0 0 1-.32-.031.93.93 0 0 1-.266-.082zm1.765 2.375h.309v-2.375h-.309zm.996-.941h.789a.45.45 0 0 0-.109-.285.36.36 0 0 0-.266-.098c-.113 0-.203.031-.273.098s-.117.164-.141.285zm1.094.188H81.98a.5.5 0 0 0 .152.355c.094.09.211.137.359.137a.94.94 0 0 0 .563-.191v.301a.96.96 0 0 1-.281.137 1.15 1.15 0 0 1-.328.043c-.176 0-.312-.039-.422-.109a.76.76 0 0 1-.254-.289c-.066-.121-.098-.258-.098-.418 0-.238.066-.434.203-.582a.68.68 0 0 1 .527-.223.62.62 0 0 1 .496.215c.121.148.184.34.184.586zm1.621-.383v1.137h-.312v-.871c0-.172-.023-.293-.07-.363s-.125-.102-.242-.102a.4.4 0 0 0-.18.043c-.055.027-.113.082-.184.156v1.137h-.309v-1.562h.309v.203c.156-.156.313-.234.465-.234.195 0 .352.094.461.281.164-.191.336-.285.52-.285a.47.47 0 0 1 .375.168c.098.109.145.277.145.508v.922h-.309v-.926a.51.51 0 0 0-.078-.301c-.055-.07-.133-.102-.23-.102-.129 0-.25.063-.359.191zm3.699-.032h.801v1.008c-.293.125-.582.188-.871.188-.395 0-.711-.113-.945-.344s-.352-.512-.352-.852c0-.352.121-.648.363-.887s.551-.352.918-.352c.137 0 .262.012.383.043a3.28 3.28 0 0 1 .457.16v.348a1.65 1.65 0 0 0-.844-.25c-.262 0-.48.09-.66.266s-.266.395-.266.652a.89.89 0 0 0 .266.664c.18.172.41.258.688.258.137 0 .301-.031.488-.094l.035-.012v-.496h-.461zm0 0"></path>
    <path d="M90.336 25.512v-.465l-.207.082a.63.63 0 0 0-.223.125c-.043.043-.066.098-.066.16s.02.117.063.156.094.063.16.063a.38.38 0 0 0 .273-.121zm.305-.633v.668c0 .055.02.078.055.078s.098-.027.176-.082v.188c-.07.047-.125.078-.168.094a.38.38 0 0 1-.133.023c-.133 0-.211-.051-.238-.156a.67.67 0 0 1-.418.156c-.109 0-.199-.039-.273-.109s-.109-.164-.109-.273a.38.38 0 0 1 .105-.262.75.75 0 0 1 .305-.187l.395-.137v-.082c0-.187-.094-.281-.281-.281-.168 0-.332.086-.492.262v-.34c.117-.141.293-.211.52-.211.168 0 .301.043.406.133a.46.46 0 0 1 .09.113.42.42 0 0 1 .055.141 3.53 3.53 0 0 1 .008.266zm0 0"></path>
    <path d="M92.43 24.684v1.137h-.312v-.871c0-.172-.023-.293-.07-.363s-.125-.102-.242-.102a.4.4 0 0 0-.18.043c-.055.027-.113.082-.184.156v1.137h-.309v-1.562h.309v.203c.16-.156.313-.234.465-.234.199 0 .352.094.461.281.164-.191.34-.285.52-.285a.47.47 0 0 1 .375.168c.098.109.148.277.148.508v.922h-.312v-.926a.51.51 0 0 0-.078-.301.27.27 0 0 0-.23-.102c-.129 0-.246.063-.359.191zm1.699-.02v.848a1.15 1.15 0 0 0 .328.047.43.43 0 0 0 .336-.145.55.55 0 0 0 .129-.379c0-.152-.039-.281-.121-.379a.39.39 0 0 0-.316-.145c-.117 0-.234.051-.355.152zm-.309-1.219h.309v.922a.72.72 0 0 1 .43-.145.61.61 0 0 1 .488.223c.125.152.188.344.188.578 0 .254-.074.453-.227.602s-.348.223-.602.223a1.56 1.56 0 0 1-.32-.031.93.93 0 0 1-.266-.082zm1.762 2.375h.313v-2.375h-.312zm0 0"></path>
    <use xlink:href="#F" x="29.231"></use>
    <use xlink:href="#E" x="44.367"></use>
  </g>
  <g clip-path="url(#A)">
    <path fill="#eee" d="M99.352 24.523a.31.31 0 0 0-.215.086c-.059.059-.086.125-.086.203s.027.148.086.203.129.078.219.078a.31.31 0 0 0 .219-.082c.059-.055.09-.121.09-.199s-.031-.152-.09-.207-.133-.082-.223-.082zm-.074 1.371c-.102 0-.187.023-.254.066s-.102.102-.102.172c0 .16.145.242.438.242.137 0 .242-.023.32-.062s.113-.098.113-.172-.051-.129-.145-.176-.219-.07-.371-.07zm-.508-1.098c0-.168.063-.297.184-.395s.289-.148.5-.148h.645v.242h-.316a.63.63 0 0 1 .129.172c.023.051.035.109.035.176 0 .082-.023.16-.07.238s-.105.141-.18.184-.195.074-.359.102c-.117.016-.176.055-.176.121 0 .035.023.066.066.086s.121.051.234.074l.371.098a.48.48 0 0 1 .148.102c.078.078.113.172.113.285a.41.41 0 0 1-.199.355c-.129.09-.309.133-.527.133-.227 0-.402-.047-.535-.133a.41.41 0 0 1-.203-.359c0-.211.133-.348.395-.41-.105-.066-.156-.133-.156-.199 0-.051.023-.098.066-.137a.45.45 0 0 1 .184-.09c-.23-.102-.348-.27-.348-.496zm0 0"></path>
  </g>
  <g clip-path="url(#B)">
    <path fill="#eee" d="M44.645 21.762h55.75v-.094h-55.75zm0 0"></path>
  </g>
  <g clip-path="url(#C)">
    <path fill="#eee" d="M11.629 16.512c.461 3.121 2.508 7.129 5.477 8.875.035.02.074.039.109.059a5.71 5.71 0 0 0 .539.277c1.07.488 2.297.746 3.539.746.234 0 .461-.012.691-.031a3.99 3.99 0 0 0 .215-.02 10.56 10.56 0 0 0 .492-.059l.219-.035a8.85 8.85 0 0 0 .641-.129l.129-.035c.184-.047.363-.102.547-.16.078-.023.156-.055.238-.082.141-.051.281-.102.422-.16l.23-.094a11.12 11.12 0 0 0 .578-.273l.023-.012.047-.023a11.26 11.26 0 0 0 .625-.363c.223-.141.43-.285.633-.437a8.91 8.91 0 0 0 .957-.832c.016-.016.031-.035.051-.051a7.07 7.07 0 0 0 .328-.355c.035-.039.07-.078.105-.121a5.88 5.88 0 0 0 .313-.387c.063-.078.117-.16.176-.242l.109-.156c.793-1.176 1.301-2.535 1.473-3.984l.016-.137c.086-.82.051-1.645-.078-2.453a5.76 5.76 0 0 1-.98 2.117 5.72 5.72 0 0 1-3.77 2.258 6.48 6.48 0 0 1-.676.059 10.57 10.57 0 0 1-.883.039c-2.008 0-3.957-.586-5.629-1.691a9.99 9.99 0 0 1-3.875-4.727 4.19 4.19 0 0 1-.062-.156l-.09-.258c-.027-.078-.055-.152-.078-.23l-.07-.227a7.6 7.6 0 0 1-.074-.277c-.02-.066-.035-.137-.051-.203a5.39 5.39 0 0 1-.07-.324l-.035-.172a7.01 7.01 0 0 1-.078-.5c-.035-.254-.055-.508-.07-.762-.004-.082-.004-.168-.008-.25-.004-.172-.008-.344-.004-.512a3.49 3.49 0 0 1 .012-.289 6.65 6.65 0 0 1 .031-.477l.027-.289c.02-.16.043-.32.07-.477.016-.09.027-.18.047-.27a8.32 8.32 0 0 1 .121-.547c.016-.059.027-.121.043-.18.063-.238.137-.477.215-.711.02-.059.047-.113.066-.172a8.41 8.41 0 0 1 .203-.52 6.44 6.44 0 0 1 .109-.242 8.49 8.49 0 0 1 .207-.43c.02-.039.035-.078.059-.117-2.809 2.938-4.168 7.043-3.551 11.211zm0 0"></path>
  </g>
  <g clip-path="url(#D)">
    <path fill="#eee" d="M24.801 27.852a13.42 13.42 0 0 0 8.422-2.984c2.449-1.98 4.852-5.77 4.855-9.207 0-.055-.004-.105-.004-.16a5.98 5.98 0 0 0-.035-.594 7.55 7.55 0 0 0-.082-.574c-.008-.027-.012-.055-.02-.078-.031-.172-.07-.344-.113-.512-.613-2.305-2.219-4.383-4.34-5.637-.043-.023-.086-.051-.129-.074-.129-.074-.266-.148-.398-.215-.039-.02-.082-.039-.121-.062a12.41 12.41 0 0 0-.52-.234 8.89 8.89 0 0 0-3.406-.676 9.14 9.14 0 0 0-5.895 2.156 5.81 5.81 0 0 1 1.758-.277 5.72 5.72 0 0 1 4.465 2.129 6.13 6.13 0 0 1 .395.551 9.22 9.22 0 0 1 .359.539l.008-.004.227.383.145.273c.016.031.035.063.051.094 1.879 3.668 1.367 7.996-1.18 11.043-.023.027-.051.055-.074.082-.07.086-.145.168-.219.25-.055.063-.113.121-.172.184l-.137.141c-.086.086-.172.164-.258.246a1.06 1.06 0 0 1-.07.066l-.328.285c-.008.008-.016.016-.023.02-.035.031-.07.063-.109.094-.082.066-.168.129-.254.195a9.39 9.39 0 0 1-.699.484 9.4 9.4 0 0 1-.703.406c-.012.008-.027.016-.043.023a8.47 8.47 0 0 1-.668.316c-.074.031-.148.063-.223.09a6.89 6.89 0 0 1-.504.191l-.23.082a10.83 10.83 0 0 1-.703.203c-.027.008-.055.012-.082.02a12.2 12.2 0 0 1-.664.137l-.242.035a8.36 8.36 0 0 1-.547.066l-.223.023c-.238.016-.48.031-.719.031a13.51 13.51 0 0 0 3.453.449zm0 0"></path>
  </g>
  <path fill="#eee" d="M35.922 8.781c.676.648 1.266 1.383 1.738 2.176-1.102-4.035-4.047-7.379-8.078-8.945-1.48-.574-3.254-.891-4.992-.891-2.422 0-4.57.59-6.047 1.66-1.922 1.398-3.211 3.699-3.551 6.156a9.28 9.28 0 0 0-.016 2.484 9.13 9.13 0 0 0 .094.57c.012.059.027.113.039.168.027.141.063.273.098.41.016.055.027.109.043.164a9.52 9.52 0 0 0 .152.473 1.27 1.27 0 0 0 .023.066c.137.383.297.754.48 1.105.008.012.012.023.016.031a9.18 9.18 0 0 0 3.285 3.52 9.47 9.47 0 0 0 1.66.813 5.75 5.75 0 0 1-1.469-6.305 5.86 5.86 0 0 1 .281-.617c1.645-3.594 5.254-5.934 9.191-5.934a9.89 9.89 0 0 1 3.578.672c.262.102.523.223.777.348l.211.105.164.082c.043.023.078.047.117.07a8.41 8.41 0 0 1 .406.234c.063.039.125.074.184.113l.438.297c.043.031.086.059.129.09.156.117.313.238.465.363.023.02.047.039.07.063a8.74 8.74 0 0 1 .492.438l.02.02zm0 0"></path>
</svg>
