<?xml version="1.0" encoding="UTF-8"?>
<svg xmlns="http://www.w3.org/2000/svg" xmlns:xlink="http://www.w3.org/1999/xlink" xmlns:v="https://vecta.io/nano" width="150" zoomAndPan="magnify" viewBox="0 0 112.5 30" height="40" preserveAspectRatio="xMidYMid meet">
  <defs>
    <clipPath id="A">
      <path d="M22.355 1.16h23.949V28H22.355zm0 0" clip-rule="nonzero"></path>
    </clipPath>
    <path id="B" d="M57.369 19.726c-1.055 0-1.996-.133-2.828-.391-.824-.258-1.512-.602-2.062-1.031-.543-.426-.965-.895-1.266-1.406l1.672-2.016h.266c.457.68 1.039 1.219 1.75 1.625s1.531.609 2.469.609c.813 0 1.422-.172 1.828-.516.414-.344.625-.812.625-1.406 0-.363-.07-.664-.203-.906-.125-.25-.344-.457-.656-.625-.305-.176-.715-.328-1.234-.453l-1.969-.453c-1.375-.312-2.402-.832-3.078-1.562-.668-.727-1-1.676-1-2.844 0-.863.211-1.617.641-2.266.438-.656 1.066-1.164 1.891-1.531s1.813-.547 2.969-.547c1.176 0 2.18.156 3.016.469a5.25 5.25 0 0 1 2.141 1.422l-1.5 2.047h-.266a4.32 4.32 0 0 0-1.484-1.016c-.555-.227-1.187-.344-1.906-.344-.836 0-1.469.148-1.906.438a1.39 1.39 0 0 0-.641 1.219c0 .48.148.867.453 1.156.301.281.828.5 1.578.656l2 .422c1.488.313 2.566.844 3.234 1.594s1 1.73 1 2.938c0 .949-.211 1.777-.625 2.484-.406.711-1.027 1.262-1.859 1.656-.824.383-1.84.578-3.047.578zm0 0"></path>
  </defs>
  <g clip-path="url(#A)">
    <path fill="#eee" d="M43.875 12.273c-.875 3.246-2.039 5.93-3.461 7.977-2.84 4.094-5.109 5.602-6.012 6.082-.898-.48-3.168-1.988-6.008-6.082-1.422-2.047-2.586-4.73-3.461-7.977-.648-2.41-.957-4.496-1.086-5.504 4.379-3.879 10.117-4.152 10.555-4.164.207.008 1.719.078 3.707.609 1.867.496 4.551 1.52 6.852 3.555-.129 1.008-.437 3.094-1.086 5.504zm2.266-6.375c-5.008-4.613-11.738-4.73-11.738-4.73s-6.727.117-11.734 4.73c-.207.195-.312.477-.281.758.219 1.879 1.27 9.285 4.828 14.414 3.258 4.695 5.875 6.242 6.816 6.684a.89.89 0 0 0 .746 0c.941-.441 3.559-1.988 6.816-6.684 3.559-5.129 4.609-12.535 4.828-14.414.031-.281-.074-.562-.281-.758"></path>
  </g>
  <g fill="#eee">
    <path d="M35.105 15.918c.031.145-.078.277-.223.277h-.957c-.145 0-.254-.133-.223-.277l.363-1.617a.76.76 0 0 1-.426-.684c0-.437.371-.793.82-.762.375.027.676.332.703.707.023.324-.156.609-.426.738zm2.406-5.578h-6.215c-.437 0-.789.352-.789.789v5.59c0 .438.352.789.789.789h6.215c.438 0 .789-.352.789-.789v-5.59c0-.437-.352-.789-.789-.789m-5.007-1.121c0-1.047.852-1.902 1.898-1.902a1.91 1.91 0 0 1 1.902 1.902v.785h.879v-.785c0-1.531-1.246-2.777-2.781-2.777a2.78 2.78 0 0 0-2.777 2.777v.785h.879v-.785m-.656 8.949h5.113a.42.42 0 0 0 .406-.328h-5.926c.043.188.207.328.406.328"></path>
    <use xlink:href="#B"></use>
    <use xlink:href="#B" x="13.12"></use>
    <path d="M81.843 4.226v12.75h6.875v2.531h-9.891V4.226zm-27.53 22.955a3.67 3.67 0 0 1-1.156-.172 2.63 2.63 0 0 1-.859-.453 2.1 2.1 0 0 1-.5-.641l.438-.531h.125c.414.719 1.066 1.078 1.953 1.078.52 0 .906-.102 1.156-.312.25-.219.375-.52.375-.906a1.24 1.24 0 0 0-.125-.578c-.086-.156-.227-.285-.422-.391-.187-.113-.445-.211-.766-.297l-.797-.187c-.594-.145-1.031-.375-1.312-.687s-.422-.707-.422-1.187c0-.344.082-.645.25-.906.176-.27.43-.477.766-.625.344-.156.75-.234 1.219-.234.508 0 .941.074 1.297.219s.633.367.844.656l-.391.531h-.109a1.89 1.89 0 0 0-.703-.531c-.269-.117-.586-.172-.937-.172-.48 0-.84.094-1.078.281-.242.18-.359.43-.359.75 0 .313.086.563.266.75.176.18.473.32.891.422l.828.188c.656.156 1.133.398 1.438.719s.453.734.453 1.234c0 .387-.09.73-.266 1.031s-.445.539-.797.703c-.344.164-.777.25-1.297.25zm0 0"></path>
    <path d="M62.107 24.681H58.56c.02.625.164 1.09.438 1.391.281.293.664.438 1.156.438.363 0 .656-.066.875-.203a1.42 1.42 0 0 0 .547-.609h.094l.5.281c-.156.375-.402.672-.734.891-.324.211-.75.313-1.281.313-.5 0-.934-.094-1.297-.281-.355-.195-.633-.492-.828-.891-.187-.406-.281-.906-.281-1.5 0-.582.098-1.07.297-1.469.207-.406.488-.707.844-.906a2.47 2.47 0 0 1 1.219-.297c.664 0 1.18.188 1.547.563.375.367.563.914.563 1.641l-.016.594zm-.641-.641c-.012-.539-.137-.937-.375-1.187-.23-.25-.559-.375-.984-.375-.449 0-.805.125-1.062.375s-.418.648-.469 1.188zm4.168 3.141a2.38 2.38 0 0 1-1.219-.312c-.367-.207-.652-.508-.859-.906-.211-.406-.312-.891-.312-1.453s.102-1.047.313-1.453.492-.707.859-.906a2.42 2.42 0 0 1 1.219-.312c.551 0 .988.105 1.313.313.32.199.555.469.703.813l-.531.375h-.094c-.137-.281-.312-.488-.531-.625s-.508-.203-.859-.203a1.48 1.48 0 0 0-.828.234 1.44 1.44 0 0 0-.562.672c-.137.293-.203.656-.203 1.094 0 .43.066.793.203 1.094s.32.531.563.688c.238.148.516.219.828.219.363 0 .66-.082.891-.25.238-.164.426-.422.563-.766h.094l.5.297c-.137.43-.375.766-.719 1.016s-.789.375-1.328.375zm4.908 0c-.586 0-1.023-.148-1.312-.453-.281-.312-.422-.766-.422-1.359v-3.437h.766v3.422c0 .781.367 1.172 1.109 1.172.469 0 .836-.148 1.109-.453.27-.312.406-.812.406-1.5v-2.641h.766v5.156h-.734v-.812l-.094-.016c-.18.313-.391.547-.641.703-.242.145-.559.219-.953.219zm4.2-.094v-5.156h.734v.813l.094.016c.238-.582.691-.875 1.359-.875.352 0 .617.063.797.188l-.203.641-.094.031a1.4 1.4 0 0 0-.641-.156 1.11 1.11 0 0 0-.953.469c-.219.313-.328.813-.328 1.5v2.531zm8.013-2.406h-3.547c.02.625.164 1.09.438 1.391.281.293.664.438 1.156.438.363 0 .656-.066.875-.203a1.42 1.42 0 0 0 .547-.609h.094l.5.281c-.156.375-.402.672-.734.891-.324.211-.75.313-1.281.313-.5 0-.934-.094-1.297-.281-.355-.195-.633-.492-.828-.891-.187-.406-.281-.906-.281-1.5 0-.582.098-1.07.297-1.469.207-.406.488-.707.844-.906a2.47 2.47 0 0 1 1.219-.297c.664 0 1.18.188 1.547.563.375.367.563.914.563 1.641l-.016.594zm-.641-.641c-.012-.539-.137-.937-.375-1.187-.23-.25-.559-.375-.984-.375-.449 0-.805.125-1.062.375s-.418.648-.469 1.188zm3.887 3.141a1.99 1.99 0 0 1-1.094-.297c-.313-.199-.562-.492-.75-.891-.18-.395-.266-.891-.266-1.484 0-.582.094-1.07.281-1.469.188-.406.441-.707.766-.906.332-.195.719-.297 1.156-.297.344 0 .648.063.922.188.281.125.516.34.703.641l.109-.016v-2.797h.75v7.234h-.75v-.75l-.109-.016a2.01 2.01 0 0 1-.687.625c-.281.156-.625.234-1.031.234zm.234-.672c.488 0 .875-.164 1.156-.5.289-.332.438-.832.438-1.5 0-.676-.148-1.176-.437-1.5-.281-.332-.668-.5-1.156-.5s-.871.164-1.141.484-.406.828-.406 1.516c0 1.336.516 2 1.547 2zm0 0"></path>
  </g>
</svg>
